%TF.GenerationSoftware,KiCad,Pcbnew,5.1.10-88a1d61d58~88~ubuntu20.10.1*%
%TF.CreationDate,2021-05-23T21:39:34+02:00*%
%TF.ProjectId,pico-dco,7069636f-2d64-4636-9f2e-6b696361645f,v2.0.0*%
%TF.SameCoordinates,Original*%
%TF.FileFunction,Soldermask,Top*%
%TF.FilePolarity,Negative*%
%FSLAX46Y46*%
G04 Gerber Fmt 4.6, Leading zero omitted, Abs format (unit mm)*
G04 Created by KiCad (PCBNEW 5.1.10-88a1d61d58~88~ubuntu20.10.1) date 2021-05-23 21:39:34*
%MOMM*%
%LPD*%
G01*
G04 APERTURE LIST*
%ADD10O,1.905000X2.000000*%
%ADD11R,1.905000X2.000000*%
%ADD12O,1.700000X1.700000*%
%ADD13R,1.700000X1.700000*%
%ADD14O,1.600000X1.600000*%
%ADD15C,1.600000*%
%ADD16O,1.600000X2.400000*%
%ADD17R,1.600000X2.400000*%
%ADD18R,1.500000X1.500000*%
%ADD19C,1.500000*%
%ADD20R,1.600000X1.600000*%
%ADD21C,1.700000*%
%ADD22O,2.190000X1.740000*%
%ADD23O,2.400000X1.600000*%
%ADD24R,2.400000X1.600000*%
%ADD25O,1.740000X2.190000*%
%ADD26R,3.500000X1.700000*%
%ADD27O,1.500000X1.500000*%
%ADD28O,1.800000X1.800000*%
%ADD29R,1.700000X3.500000*%
G04 APERTURE END LIST*
D10*
%TO.C,U1*%
X73580000Y-50000000D03*
X71040000Y-50000000D03*
D11*
X68500000Y-50000000D03*
%TD*%
D12*
%TO.C,MOD1*%
X132260000Y-22700000D03*
X129720000Y-22700000D03*
X127180000Y-22700000D03*
X124640000Y-22700000D03*
X122100000Y-22700000D03*
X119560000Y-22700000D03*
X117020000Y-22700000D03*
X114480000Y-22700000D03*
X111940000Y-22700000D03*
D13*
X109400000Y-22700000D03*
%TD*%
D14*
%TO.C,R4*%
X106600000Y-106660000D03*
D15*
X106600000Y-96500000D03*
%TD*%
%TO.C,C16*%
X113800000Y-115700000D03*
X113800000Y-110700000D03*
%TD*%
D16*
%TO.C,U8*%
X62810000Y-152060000D03*
X78050000Y-159680000D03*
X65350000Y-152060000D03*
X75510000Y-159680000D03*
X67890000Y-152060000D03*
X72970000Y-159680000D03*
X70430000Y-152060000D03*
X70430000Y-159680000D03*
X72970000Y-152060000D03*
X67890000Y-159680000D03*
X75510000Y-152060000D03*
X65350000Y-159680000D03*
X78050000Y-152060000D03*
D17*
X62810000Y-159680000D03*
%TD*%
D16*
%TO.C,U7*%
X137100000Y-164440000D03*
X121860000Y-156820000D03*
X134560000Y-164440000D03*
X124400000Y-156820000D03*
X132020000Y-164440000D03*
X126940000Y-156820000D03*
X129480000Y-164440000D03*
X129480000Y-156820000D03*
X126940000Y-164440000D03*
X132020000Y-156820000D03*
X124400000Y-164440000D03*
X134560000Y-156820000D03*
X121860000Y-164440000D03*
D17*
X137100000Y-156820000D03*
%TD*%
D16*
%TO.C,U6*%
X62560000Y-112300000D03*
X77800000Y-119920000D03*
X65100000Y-112300000D03*
X75260000Y-119920000D03*
X67640000Y-112300000D03*
X72720000Y-119920000D03*
X70180000Y-112300000D03*
X70180000Y-119920000D03*
X72720000Y-112300000D03*
X67640000Y-119920000D03*
X75260000Y-112300000D03*
X65100000Y-119920000D03*
X77800000Y-112300000D03*
D17*
X62560000Y-119920000D03*
%TD*%
D16*
%TO.C,U5*%
X137100000Y-124700000D03*
X121860000Y-117080000D03*
X134560000Y-124700000D03*
X124400000Y-117080000D03*
X132020000Y-124700000D03*
X126940000Y-117080000D03*
X129480000Y-124700000D03*
X129480000Y-117080000D03*
X126940000Y-124700000D03*
X132020000Y-117080000D03*
X124400000Y-124700000D03*
X134560000Y-117080000D03*
X121860000Y-124700000D03*
D17*
X137100000Y-117080000D03*
%TD*%
D14*
%TO.C,R87*%
X66550000Y-140530000D03*
D15*
X76710000Y-140530000D03*
%TD*%
D14*
%TO.C,R86*%
X66550000Y-144279999D03*
D15*
X76710000Y-144279999D03*
%TD*%
D14*
%TO.C,R85*%
X56810000Y-150290000D03*
D15*
X56810000Y-140130000D03*
%TD*%
D14*
%TO.C,R84*%
X53010000Y-150290000D03*
D15*
X53010000Y-140130000D03*
%TD*%
D14*
%TO.C,R83*%
X53010000Y-158770000D03*
D15*
X53010000Y-168930000D03*
%TD*%
D14*
%TO.C,R82*%
X90070000Y-140530000D03*
D15*
X79910000Y-140530000D03*
%TD*%
D14*
%TO.C,R81*%
X79950000Y-144229999D03*
D15*
X90110000Y-144229999D03*
%TD*%
D14*
%TO.C,R80*%
X79950000Y-147929999D03*
D15*
X90110000Y-147929999D03*
%TD*%
D14*
%TO.C,R79*%
X71470000Y-175930000D03*
D15*
X61310000Y-175930000D03*
%TD*%
D14*
%TO.C,R78*%
X78470000Y-163680000D03*
D15*
X68310000Y-163680000D03*
%TD*%
D14*
%TO.C,R77*%
X61350000Y-171430000D03*
D15*
X71510000Y-171430000D03*
%TD*%
D14*
%TO.C,R76*%
X68400000Y-167429999D03*
D15*
X78560000Y-167429999D03*
%TD*%
D14*
%TO.C,R75*%
X82060000Y-161839999D03*
D15*
X82060000Y-151679999D03*
%TD*%
D14*
%TO.C,R74*%
X82060000Y-176339999D03*
D15*
X82060000Y-166179999D03*
%TD*%
D14*
%TO.C,R73*%
X133360000Y-175970000D03*
D15*
X123200000Y-175970000D03*
%TD*%
D14*
%TO.C,R72*%
X133360000Y-172220001D03*
D15*
X123200000Y-172220001D03*
%TD*%
D14*
%TO.C,R71*%
X143100000Y-166210000D03*
D15*
X143100000Y-176370000D03*
%TD*%
D14*
%TO.C,R70*%
X146900000Y-166210000D03*
D15*
X146900000Y-176370000D03*
%TD*%
D14*
%TO.C,R69*%
X146900000Y-157730000D03*
D15*
X146900000Y-147570000D03*
%TD*%
D14*
%TO.C,R68*%
X109840000Y-175970000D03*
D15*
X120000000Y-175970000D03*
%TD*%
D14*
%TO.C,R67*%
X119960000Y-172270001D03*
D15*
X109800000Y-172270001D03*
%TD*%
D14*
%TO.C,R66*%
X119960000Y-168570001D03*
D15*
X109800000Y-168570001D03*
%TD*%
D14*
%TO.C,R65*%
X128440000Y-140570000D03*
D15*
X138600000Y-140570000D03*
%TD*%
D14*
%TO.C,R64*%
X121440000Y-152820000D03*
D15*
X131600000Y-152820000D03*
%TD*%
D14*
%TO.C,R63*%
X138560000Y-145070000D03*
D15*
X128400000Y-145070000D03*
%TD*%
D14*
%TO.C,R62*%
X131510000Y-149070001D03*
D15*
X121350000Y-149070001D03*
%TD*%
D14*
%TO.C,R61*%
X117850000Y-154660001D03*
D15*
X117850000Y-164820001D03*
%TD*%
D14*
%TO.C,R60*%
X117850000Y-140160001D03*
D15*
X117850000Y-150320001D03*
%TD*%
D14*
%TO.C,R59*%
X66300000Y-100770000D03*
D15*
X76460000Y-100770000D03*
%TD*%
D14*
%TO.C,R58*%
X66300000Y-104520000D03*
D15*
X76460000Y-104520000D03*
%TD*%
D14*
%TO.C,R57*%
X56560000Y-110530000D03*
D15*
X56560000Y-100370000D03*
%TD*%
D14*
%TO.C,R56*%
X52760000Y-110530000D03*
D15*
X52760000Y-100370000D03*
%TD*%
D14*
%TO.C,R55*%
X52760000Y-119010000D03*
D15*
X52760000Y-129170000D03*
%TD*%
D14*
%TO.C,R54*%
X89820000Y-100770000D03*
D15*
X79660000Y-100770000D03*
%TD*%
D14*
%TO.C,R53*%
X79700000Y-104470000D03*
D15*
X89860000Y-104470000D03*
%TD*%
D14*
%TO.C,R52*%
X79700000Y-108170000D03*
D15*
X89860000Y-108170000D03*
%TD*%
D14*
%TO.C,R51*%
X71220000Y-136170000D03*
D15*
X61060000Y-136170000D03*
%TD*%
D14*
%TO.C,R50*%
X78220000Y-123920000D03*
D15*
X68060000Y-123920000D03*
%TD*%
D14*
%TO.C,R49*%
X61100000Y-131670000D03*
D15*
X71260000Y-131670000D03*
%TD*%
D14*
%TO.C,R48*%
X68150000Y-127670000D03*
D15*
X78310000Y-127670000D03*
%TD*%
D14*
%TO.C,R47*%
X81810000Y-122080000D03*
D15*
X81810000Y-111920000D03*
%TD*%
D14*
%TO.C,R46*%
X81810000Y-136580000D03*
D15*
X81810000Y-126420000D03*
%TD*%
D14*
%TO.C,R45*%
X133360000Y-136230000D03*
D15*
X123200000Y-136230000D03*
%TD*%
D14*
%TO.C,R44*%
X133360000Y-132480000D03*
D15*
X123200000Y-132480000D03*
%TD*%
D14*
%TO.C,R43*%
X143100000Y-126470000D03*
D15*
X143100000Y-136630000D03*
%TD*%
D14*
%TO.C,R42*%
X146900000Y-126470000D03*
D15*
X146900000Y-136630000D03*
%TD*%
D14*
%TO.C,R41*%
X146900000Y-117990000D03*
D15*
X146900000Y-107830000D03*
%TD*%
D14*
%TO.C,R40*%
X109840000Y-136230000D03*
D15*
X120000000Y-136230000D03*
%TD*%
D14*
%TO.C,R39*%
X119960000Y-132530000D03*
D15*
X109800000Y-132530000D03*
%TD*%
D14*
%TO.C,R38*%
X119960000Y-128830000D03*
D15*
X109800000Y-128830000D03*
%TD*%
D14*
%TO.C,R37*%
X128440000Y-100830000D03*
D15*
X138600000Y-100830000D03*
%TD*%
D14*
%TO.C,R36*%
X121440000Y-113080000D03*
D15*
X131600000Y-113080000D03*
%TD*%
D14*
%TO.C,R35*%
X138560000Y-105330000D03*
D15*
X128400000Y-105330000D03*
%TD*%
D14*
%TO.C,R34*%
X131510000Y-109330000D03*
D15*
X121350000Y-109330000D03*
%TD*%
D14*
%TO.C,R33*%
X117850000Y-114920000D03*
D15*
X117850000Y-125080000D03*
%TD*%
D14*
%TO.C,R32*%
X117850000Y-100420000D03*
D15*
X117850000Y-110580000D03*
%TD*%
D18*
%TO.C,Q6*%
X58060000Y-173930000D03*
D19*
X52980000Y-173930000D03*
X55520000Y-176470000D03*
%TD*%
D18*
%TO.C,Q5*%
X141850000Y-142570000D03*
D19*
X146930000Y-142570000D03*
X144390000Y-140030000D03*
%TD*%
D18*
%TO.C,Q4*%
X57810000Y-134170000D03*
D19*
X52730000Y-134170000D03*
X55270000Y-136710000D03*
%TD*%
D18*
%TO.C,Q3*%
X141850000Y-102830000D03*
D19*
X146930000Y-102830000D03*
X144390000Y-100290000D03*
%TD*%
D15*
%TO.C,C35*%
X57810000Y-153530000D03*
X57810000Y-158530000D03*
%TD*%
%TO.C,C34*%
X61810000Y-144930000D03*
D20*
X61810000Y-142930000D03*
%TD*%
D15*
%TO.C,C33*%
X64810000Y-165530000D03*
X59810000Y-165530000D03*
%TD*%
%TO.C,C32*%
X77060000Y-176180000D03*
X77060000Y-171180000D03*
%TD*%
%TO.C,C31*%
X86910000Y-171129999D03*
X86910000Y-166129999D03*
%TD*%
%TO.C,C30*%
X142100000Y-162970000D03*
X142100000Y-157970000D03*
%TD*%
%TO.C,C29*%
X138100000Y-171570000D03*
D20*
X138100000Y-173570000D03*
%TD*%
D15*
%TO.C,C28*%
X135100000Y-150970000D03*
X140100000Y-150970000D03*
%TD*%
%TO.C,C27*%
X122850000Y-140320000D03*
X122850000Y-145320000D03*
%TD*%
%TO.C,C26*%
X113000000Y-145370001D03*
X113000000Y-150370001D03*
%TD*%
%TO.C,C25*%
X57560000Y-113770000D03*
X57560000Y-118770000D03*
%TD*%
%TO.C,C24*%
X61560000Y-105170000D03*
D20*
X61560000Y-103170000D03*
%TD*%
D15*
%TO.C,C23*%
X64560000Y-125770000D03*
X59560000Y-125770000D03*
%TD*%
%TO.C,C22*%
X76810000Y-136420000D03*
X76810000Y-131420000D03*
%TD*%
%TO.C,C21*%
X86660000Y-131370000D03*
X86660000Y-126370000D03*
%TD*%
%TO.C,C20*%
X142100000Y-123230000D03*
X142100000Y-118230000D03*
%TD*%
%TO.C,C19*%
X138100000Y-131830000D03*
D20*
X138100000Y-133830000D03*
%TD*%
D15*
%TO.C,C18*%
X135100000Y-111230000D03*
X140100000Y-111230000D03*
%TD*%
%TO.C,C17*%
X122850000Y-100580000D03*
X122850000Y-105580000D03*
%TD*%
D16*
%TO.C,U4*%
X62400000Y-72700000D03*
X77640000Y-80320000D03*
X64940000Y-72700000D03*
X75100000Y-80320000D03*
X67480000Y-72700000D03*
X72560000Y-80320000D03*
X70020000Y-72700000D03*
X70020000Y-80320000D03*
X72560000Y-72700000D03*
X67480000Y-80320000D03*
X75100000Y-72700000D03*
X64940000Y-80320000D03*
X77640000Y-72700000D03*
D17*
X62400000Y-80320000D03*
%TD*%
D14*
%TO.C,R31*%
X66140000Y-61170000D03*
D15*
X76300000Y-61170000D03*
%TD*%
D14*
%TO.C,R30*%
X66140000Y-64920000D03*
D15*
X76300000Y-64920000D03*
%TD*%
D14*
%TO.C,R29*%
X56400000Y-70930000D03*
D15*
X56400000Y-60770000D03*
%TD*%
D14*
%TO.C,R28*%
X52600000Y-70930000D03*
D15*
X52600000Y-60770000D03*
%TD*%
D14*
%TO.C,R27*%
X52600000Y-79410000D03*
D15*
X52600000Y-89570000D03*
%TD*%
D14*
%TO.C,R26*%
X89660000Y-61170000D03*
D15*
X79500000Y-61170000D03*
%TD*%
D14*
%TO.C,R25*%
X79540000Y-64870000D03*
D15*
X89700000Y-64870000D03*
%TD*%
D14*
%TO.C,R24*%
X79540000Y-68570000D03*
D15*
X89700000Y-68570000D03*
%TD*%
D14*
%TO.C,R23*%
X71060000Y-96570000D03*
D15*
X60900000Y-96570000D03*
%TD*%
D14*
%TO.C,R22*%
X78060000Y-84320000D03*
D15*
X67900000Y-84320000D03*
%TD*%
D14*
%TO.C,R21*%
X60940000Y-92070000D03*
D15*
X71100000Y-92070000D03*
%TD*%
D14*
%TO.C,R20*%
X67990000Y-88070000D03*
D15*
X78150000Y-88070000D03*
%TD*%
D14*
%TO.C,R19*%
X81650000Y-82480000D03*
D15*
X81650000Y-72320000D03*
%TD*%
D14*
%TO.C,R18*%
X81650000Y-96980000D03*
D15*
X81650000Y-86820000D03*
%TD*%
D18*
%TO.C,Q2*%
X57650000Y-94570000D03*
D19*
X52570000Y-94570000D03*
X55110000Y-97110000D03*
%TD*%
D15*
%TO.C,C15*%
X57400000Y-74170000D03*
X57400000Y-79170000D03*
%TD*%
%TO.C,C14*%
X61400000Y-65570000D03*
D20*
X61400000Y-63570000D03*
%TD*%
D15*
%TO.C,C13*%
X64400000Y-86170000D03*
X59400000Y-86170000D03*
%TD*%
%TO.C,C12*%
X76650000Y-96820000D03*
X76650000Y-91820000D03*
%TD*%
%TO.C,C11*%
X86500000Y-91770000D03*
X86500000Y-86770000D03*
%TD*%
D21*
%TO.C,GATE1*%
X101340000Y-85680000D03*
X101340000Y-83140000D03*
X101340000Y-80600000D03*
X101340000Y-78060000D03*
X101340000Y-75520000D03*
X101340000Y-72980000D03*
X101340000Y-70440000D03*
X101340000Y-67900000D03*
X98800000Y-85680000D03*
X98800000Y-83140000D03*
X98800000Y-80600000D03*
X98800000Y-78060000D03*
X98800000Y-75520000D03*
X98800000Y-72980000D03*
X98800000Y-70440000D03*
G36*
G01*
X97950000Y-68500000D02*
X97950000Y-67300000D01*
G75*
G02*
X98200000Y-67050000I250000J0D01*
G01*
X99400000Y-67050000D01*
G75*
G02*
X99650000Y-67300000I0J-250000D01*
G01*
X99650000Y-68500000D01*
G75*
G02*
X99400000Y-68750000I-250000J0D01*
G01*
X98200000Y-68750000D01*
G75*
G02*
X97950000Y-68500000I0J250000D01*
G01*
G37*
%TD*%
%TO.C,RAMP1*%
X101340000Y-138880000D03*
X101340000Y-136340000D03*
X101340000Y-133800000D03*
X101340000Y-131260000D03*
X101340000Y-128720000D03*
X101340000Y-126180000D03*
X101340000Y-123640000D03*
X101340000Y-121100000D03*
X98800000Y-138880000D03*
X98800000Y-136340000D03*
X98800000Y-133800000D03*
X98800000Y-131260000D03*
X98800000Y-128720000D03*
X98800000Y-126180000D03*
X98800000Y-123640000D03*
G36*
G01*
X97950000Y-121700000D02*
X97950000Y-120500000D01*
G75*
G02*
X98200000Y-120250000I250000J0D01*
G01*
X99400000Y-120250000D01*
G75*
G02*
X99650000Y-120500000I0J-250000D01*
G01*
X99650000Y-121700000D01*
G75*
G02*
X99400000Y-121950000I-250000J0D01*
G01*
X98200000Y-121950000D01*
G75*
G02*
X97950000Y-121700000I0J250000D01*
G01*
G37*
%TD*%
D22*
%TO.C,PWM_IN1*%
X100100000Y-99440000D03*
G36*
G01*
X99254999Y-96030000D02*
X100945001Y-96030000D01*
G75*
G02*
X101195000Y-96279999I0J-249999D01*
G01*
X101195000Y-97520001D01*
G75*
G02*
X100945001Y-97770000I-249999J0D01*
G01*
X99254999Y-97770000D01*
G75*
G02*
X99005000Y-97520001I0J249999D01*
G01*
X99005000Y-96279999D01*
G75*
G02*
X99254999Y-96030000I249999J0D01*
G01*
G37*
%TD*%
D21*
%TO.C,PULSE1*%
X101340000Y-169480000D03*
X101340000Y-166940000D03*
X101340000Y-164400000D03*
X101340000Y-161860000D03*
X101340000Y-159320000D03*
X101340000Y-156780000D03*
X101340000Y-154240000D03*
X101340000Y-151700000D03*
X98800000Y-169480000D03*
X98800000Y-166940000D03*
X98800000Y-164400000D03*
X98800000Y-161860000D03*
X98800000Y-159320000D03*
X98800000Y-156780000D03*
X98800000Y-154240000D03*
G36*
G01*
X97950000Y-152300000D02*
X97950000Y-151100000D01*
G75*
G02*
X98200000Y-150850000I250000J0D01*
G01*
X99400000Y-150850000D01*
G75*
G02*
X99650000Y-151100000I0J-250000D01*
G01*
X99650000Y-152300000D01*
G75*
G02*
X99400000Y-152550000I-250000J0D01*
G01*
X98200000Y-152550000D01*
G75*
G02*
X97950000Y-152300000I0J250000D01*
G01*
G37*
%TD*%
D23*
%TO.C,U3*%
X85120000Y-37500000D03*
X77500000Y-42580000D03*
X85120000Y-40040000D03*
X77500000Y-40040000D03*
X85120000Y-42580000D03*
D24*
X77500000Y-37500000D03*
%TD*%
D14*
%TO.C,R17*%
X89500000Y-47660000D03*
D15*
X89500000Y-37500000D03*
%TD*%
D14*
%TO.C,R16*%
X80500000Y-23590000D03*
D15*
X80500000Y-33750000D03*
%TD*%
D25*
%TO.C,MIDI_IN1*%
X89210000Y-26000000D03*
G36*
G01*
X92620000Y-25154999D02*
X92620000Y-26845001D01*
G75*
G02*
X92370001Y-27095000I-249999J0D01*
G01*
X91129999Y-27095000D01*
G75*
G02*
X90880000Y-26845001I0J249999D01*
G01*
X90880000Y-25154999D01*
G75*
G02*
X91129999Y-24905000I249999J0D01*
G01*
X92370001Y-24905000D01*
G75*
G02*
X92620000Y-25154999I0J-249999D01*
G01*
G37*
%TD*%
D14*
%TO.C,D1*%
X84250000Y-25000000D03*
D20*
X84250000Y-32620000D03*
%TD*%
D15*
%TO.C,C10*%
X79000000Y-48500000D03*
X84000000Y-48500000D03*
%TD*%
D21*
%TO.C,POWER1*%
X61340000Y-28790000D03*
X63880000Y-28790000D03*
X66420000Y-28790000D03*
X68960000Y-28790000D03*
X71500000Y-28790000D03*
X61340000Y-26250000D03*
X63880000Y-26250000D03*
X66420000Y-26250000D03*
X68960000Y-26250000D03*
G36*
G01*
X70900000Y-25400000D02*
X72100000Y-25400000D01*
G75*
G02*
X72350000Y-25650000I0J-250000D01*
G01*
X72350000Y-26850000D01*
G75*
G02*
X72100000Y-27100000I-250000J0D01*
G01*
X70900000Y-27100000D01*
G75*
G02*
X70650000Y-26850000I0J250000D01*
G01*
X70650000Y-25650000D01*
G75*
G02*
X70900000Y-25400000I250000J0D01*
G01*
G37*
%TD*%
D14*
%TO.C,FB2*%
X61750000Y-45410000D03*
D15*
X61750000Y-35250000D03*
%TD*%
D14*
%TO.C,FB1*%
X57250000Y-45410000D03*
D15*
X57250000Y-35250000D03*
%TD*%
%TO.C,C9*%
X64250000Y-54000000D03*
D20*
X62250000Y-54000000D03*
%TD*%
D15*
%TO.C,C8*%
X57000000Y-50500000D03*
D20*
X55000000Y-50500000D03*
%TD*%
D15*
%TO.C,C7*%
X73500000Y-37500000D03*
X68500000Y-37500000D03*
%TD*%
%TO.C,C6*%
X68500000Y-56000000D03*
X73500000Y-56000000D03*
%TD*%
D22*
%TO.C,PW_POT1*%
X100100000Y-108580000D03*
X100100000Y-106040000D03*
G36*
G01*
X99254999Y-102630000D02*
X100945001Y-102630000D01*
G75*
G02*
X101195000Y-102879999I0J-249999D01*
G01*
X101195000Y-104120001D01*
G75*
G02*
X100945001Y-104370000I-249999J0D01*
G01*
X99254999Y-104370000D01*
G75*
G02*
X99005000Y-104120001I0J249999D01*
G01*
X99005000Y-102879999D01*
G75*
G02*
X99254999Y-102630000I249999J0D01*
G01*
G37*
%TD*%
D16*
%TO.C,U2*%
X137300000Y-84970000D03*
X122060000Y-77350000D03*
X134760000Y-84970000D03*
X124600000Y-77350000D03*
X132220000Y-84970000D03*
X127140000Y-77350000D03*
X129680000Y-84970000D03*
X129680000Y-77350000D03*
X127140000Y-84970000D03*
X132220000Y-77350000D03*
X124600000Y-84970000D03*
X134760000Y-77350000D03*
X122060000Y-84970000D03*
D17*
X137300000Y-77350000D03*
%TD*%
D15*
%TO.C,C5*%
X142300000Y-83500000D03*
X142300000Y-78500000D03*
%TD*%
D18*
%TO.C,Q1*%
X142050000Y-63100000D03*
D19*
X147130000Y-63100000D03*
X144590000Y-60560000D03*
%TD*%
D14*
%TO.C,R15*%
X133560000Y-96500000D03*
D15*
X123400000Y-96500000D03*
%TD*%
D14*
%TO.C,R14*%
X133560000Y-92750000D03*
D15*
X123400000Y-92750000D03*
%TD*%
D14*
%TO.C,R13*%
X143300000Y-86740000D03*
D15*
X143300000Y-96900000D03*
%TD*%
D14*
%TO.C,R12*%
X147100000Y-86740000D03*
D15*
X147100000Y-96900000D03*
%TD*%
D14*
%TO.C,R11*%
X147100000Y-78260000D03*
D15*
X147100000Y-68100000D03*
%TD*%
D14*
%TO.C,R10*%
X110040000Y-96500000D03*
D15*
X120200000Y-96500000D03*
%TD*%
D14*
%TO.C,R9*%
X120160000Y-92800000D03*
D15*
X110000000Y-92800000D03*
%TD*%
D14*
%TO.C,R8*%
X120160000Y-89100000D03*
D15*
X110000000Y-89100000D03*
%TD*%
D14*
%TO.C,R7*%
X128640000Y-61100000D03*
D15*
X138800000Y-61100000D03*
%TD*%
D14*
%TO.C,R6*%
X121640000Y-73350000D03*
D15*
X131800000Y-73350000D03*
%TD*%
D14*
%TO.C,R5*%
X138760000Y-65600000D03*
D15*
X128600000Y-65600000D03*
%TD*%
D14*
%TO.C,R3*%
X131710000Y-69600000D03*
D15*
X121550000Y-69600000D03*
%TD*%
D14*
%TO.C,R2*%
X118050000Y-75190000D03*
D15*
X118050000Y-85350000D03*
%TD*%
D14*
%TO.C,R1*%
X118050000Y-60690000D03*
D15*
X118050000Y-70850000D03*
%TD*%
D12*
%TO.C,MCU1*%
X144650000Y-36960000D03*
D26*
X145550000Y-36960000D03*
D13*
X144650000Y-39500000D03*
D26*
X145550000Y-39500000D03*
D12*
X144650000Y-42040000D03*
D26*
X145550000Y-42040000D03*
D27*
X99780000Y-37075000D03*
X99780000Y-41925000D03*
D28*
X96750000Y-36775000D03*
X96750000Y-42225000D03*
D29*
X144880000Y-29710000D03*
X142340000Y-29710000D03*
X139800000Y-29710000D03*
X137260000Y-29710000D03*
X134720000Y-29710000D03*
X132180000Y-29710000D03*
X129640000Y-29710000D03*
X127100000Y-29710000D03*
X124560000Y-29710000D03*
X122020000Y-29710000D03*
X119480000Y-29710000D03*
X116940000Y-29710000D03*
X114400000Y-29710000D03*
X111860000Y-29710000D03*
X109320000Y-29710000D03*
X106780000Y-29710000D03*
X104240000Y-29710000D03*
X101700000Y-29710000D03*
X99160000Y-29710000D03*
X96620000Y-29710000D03*
X144880000Y-49290000D03*
X142340000Y-49290000D03*
X139800000Y-49290000D03*
X137260000Y-49290000D03*
X134720000Y-49290000D03*
X132180000Y-49290000D03*
X129640000Y-49290000D03*
X127100000Y-49290000D03*
X124560000Y-49290000D03*
X122020000Y-49290000D03*
X119480000Y-49290000D03*
X116940000Y-49290000D03*
X114400000Y-49290000D03*
X111860000Y-49290000D03*
X109320000Y-49290000D03*
X106780000Y-49290000D03*
X104240000Y-49290000D03*
X101700000Y-49290000D03*
X99160000Y-49290000D03*
X96620000Y-49290000D03*
D12*
X96620000Y-30610000D03*
X99160000Y-30610000D03*
D13*
X101700000Y-30610000D03*
D12*
X104240000Y-30610000D03*
X106780000Y-30610000D03*
X109320000Y-30610000D03*
X111860000Y-30610000D03*
D13*
X114400000Y-30610000D03*
D12*
X116940000Y-30610000D03*
X119480000Y-30610000D03*
X122020000Y-30610000D03*
X124560000Y-30610000D03*
D13*
X127100000Y-30610000D03*
D12*
X129640000Y-30610000D03*
X132180000Y-30610000D03*
X134720000Y-30610000D03*
X137260000Y-30610000D03*
D13*
X139800000Y-30610000D03*
D12*
X142340000Y-30610000D03*
X144880000Y-30610000D03*
X144880000Y-48390000D03*
X142340000Y-48390000D03*
D13*
X139800000Y-48390000D03*
D12*
X137260000Y-48390000D03*
X134720000Y-48390000D03*
X132180000Y-48390000D03*
X129640000Y-48390000D03*
D13*
X127100000Y-48390000D03*
D12*
X124560000Y-48390000D03*
X122020000Y-48390000D03*
X119480000Y-48390000D03*
X116940000Y-48390000D03*
D13*
X114400000Y-48390000D03*
D12*
X111860000Y-48390000D03*
X109320000Y-48390000D03*
X106780000Y-48390000D03*
X104240000Y-48390000D03*
D13*
X101700000Y-48390000D03*
D12*
X99160000Y-48390000D03*
X96620000Y-48390000D03*
%TD*%
D15*
%TO.C,C4*%
X138300000Y-92100000D03*
D20*
X138300000Y-94100000D03*
%TD*%
D15*
%TO.C,C3*%
X135300000Y-71500000D03*
X140300000Y-71500000D03*
%TD*%
%TO.C,C2*%
X123050000Y-60850000D03*
X123050000Y-65850000D03*
%TD*%
%TO.C,C1*%
X113200000Y-65900000D03*
X113200000Y-70900000D03*
%TD*%
M02*
