%TF.GenerationSoftware,KiCad,Pcbnew,5.1.10-88a1d61d58~88~ubuntu20.10.1*%
%TF.CreationDate,2021-05-14T16:13:35+02:00*%
%TF.ProjectId,pico-dco,7069636f-2d64-4636-9f2e-6b696361645f,v2.0.0*%
%TF.SameCoordinates,Original*%
%TF.FileFunction,Legend,Bot*%
%TF.FilePolarity,Positive*%
%FSLAX46Y46*%
G04 Gerber Fmt 4.6, Leading zero omitted, Abs format (unit mm)*
G04 Created by KiCad (PCBNEW 5.1.10-88a1d61d58~88~ubuntu20.10.1) date 2021-05-14 16:13:35*
%MOMM*%
%LPD*%
G01*
G04 APERTURE LIST*
%ADD10C,0.300000*%
%ADD11C,0.010000*%
G04 APERTURE END LIST*
D10*
X142871428Y-37928571D02*
X142871428Y-36428571D01*
X142300000Y-36428571D01*
X142157142Y-36500000D01*
X142085714Y-36571428D01*
X142014285Y-36714285D01*
X142014285Y-36928571D01*
X142085714Y-37071428D01*
X142157142Y-37142857D01*
X142300000Y-37214285D01*
X142871428Y-37214285D01*
X141157142Y-37928571D02*
X141300000Y-37857142D01*
X141371428Y-37785714D01*
X141442857Y-37642857D01*
X141442857Y-37214285D01*
X141371428Y-37071428D01*
X141300000Y-37000000D01*
X141157142Y-36928571D01*
X140942857Y-36928571D01*
X140800000Y-37000000D01*
X140728571Y-37071428D01*
X140657142Y-37214285D01*
X140657142Y-37642857D01*
X140728571Y-37785714D01*
X140800000Y-37857142D01*
X140942857Y-37928571D01*
X141157142Y-37928571D01*
X139800000Y-37928571D02*
X139942857Y-37857142D01*
X140014285Y-37714285D01*
X140014285Y-36428571D01*
X139371428Y-36928571D02*
X139014285Y-37928571D01*
X138657142Y-36928571D02*
X139014285Y-37928571D01*
X139157142Y-38285714D01*
X139228571Y-38357142D01*
X139371428Y-38428571D01*
X138085714Y-37928571D02*
X138085714Y-36428571D01*
X137942857Y-37357142D02*
X137514285Y-37928571D01*
X137514285Y-36928571D02*
X138085714Y-37500000D01*
X136871428Y-37928571D02*
X136871428Y-36928571D01*
X136871428Y-36428571D02*
X136942857Y-36500000D01*
X136871428Y-36571428D01*
X136800000Y-36500000D01*
X136871428Y-36428571D01*
X136871428Y-36571428D01*
X136371428Y-36928571D02*
X135800000Y-36928571D01*
X136157142Y-36428571D02*
X136157142Y-37714285D01*
X136085714Y-37857142D01*
X135942857Y-37928571D01*
X135800000Y-37928571D01*
X133299999Y-37928571D02*
X133799999Y-37214285D01*
X134157142Y-37928571D02*
X134157142Y-36428571D01*
X133585714Y-36428571D01*
X133442857Y-36500000D01*
X133371428Y-36571428D01*
X133299999Y-36714285D01*
X133299999Y-36928571D01*
X133371428Y-37071428D01*
X133442857Y-37142857D01*
X133585714Y-37214285D01*
X134157142Y-37214285D01*
X132014285Y-37928571D02*
X132014285Y-37142857D01*
X132085714Y-37000000D01*
X132228571Y-36928571D01*
X132514285Y-36928571D01*
X132657142Y-37000000D01*
X132014285Y-37857142D02*
X132157142Y-37928571D01*
X132514285Y-37928571D01*
X132657142Y-37857142D01*
X132728571Y-37714285D01*
X132728571Y-37571428D01*
X132657142Y-37428571D01*
X132514285Y-37357142D01*
X132157142Y-37357142D01*
X132014285Y-37285714D01*
X131371428Y-37857142D02*
X131228571Y-37928571D01*
X130942857Y-37928571D01*
X130799999Y-37857142D01*
X130728571Y-37714285D01*
X130728571Y-37642857D01*
X130799999Y-37500000D01*
X130942857Y-37428571D01*
X131157142Y-37428571D01*
X131299999Y-37357142D01*
X131371428Y-37214285D01*
X131371428Y-37142857D01*
X131299999Y-37000000D01*
X131157142Y-36928571D01*
X130942857Y-36928571D01*
X130799999Y-37000000D01*
X130085714Y-36928571D02*
X130085714Y-38428571D01*
X130085714Y-37000000D02*
X129942857Y-36928571D01*
X129657142Y-36928571D01*
X129514285Y-37000000D01*
X129442857Y-37071428D01*
X129371428Y-37214285D01*
X129371428Y-37642857D01*
X129442857Y-37785714D01*
X129514285Y-37857142D01*
X129657142Y-37928571D01*
X129942857Y-37928571D01*
X130085714Y-37857142D01*
X128728571Y-37928571D02*
X128728571Y-36428571D01*
X128728571Y-37000000D02*
X128585714Y-36928571D01*
X128299999Y-36928571D01*
X128157142Y-37000000D01*
X128085714Y-37071428D01*
X128014285Y-37214285D01*
X128014285Y-37642857D01*
X128085714Y-37785714D01*
X128157142Y-37857142D01*
X128299999Y-37928571D01*
X128585714Y-37928571D01*
X128728571Y-37857142D01*
X126799999Y-37857142D02*
X126942857Y-37928571D01*
X127228571Y-37928571D01*
X127371428Y-37857142D01*
X127442857Y-37714285D01*
X127442857Y-37142857D01*
X127371428Y-37000000D01*
X127228571Y-36928571D01*
X126942857Y-36928571D01*
X126799999Y-37000000D01*
X126728571Y-37142857D01*
X126728571Y-37285714D01*
X127442857Y-37428571D01*
X126085714Y-37928571D02*
X126085714Y-36928571D01*
X126085714Y-37214285D02*
X126014285Y-37071428D01*
X125942857Y-37000000D01*
X125799999Y-36928571D01*
X125657142Y-36928571D01*
X125157142Y-37928571D02*
X125157142Y-36928571D01*
X125157142Y-37214285D02*
X125085714Y-37071428D01*
X125014285Y-37000000D01*
X124871428Y-36928571D01*
X124728571Y-36928571D01*
X124371428Y-36928571D02*
X124014285Y-37928571D01*
X123657142Y-36928571D02*
X124014285Y-37928571D01*
X124157142Y-38285714D01*
X124228571Y-38357142D01*
X124371428Y-38428571D01*
X121942857Y-37928571D02*
X121942857Y-36428571D01*
X121371428Y-36428571D01*
X121228571Y-36500000D01*
X121157142Y-36571428D01*
X121085714Y-36714285D01*
X121085714Y-36928571D01*
X121157142Y-37071428D01*
X121228571Y-37142857D01*
X121371428Y-37214285D01*
X121942857Y-37214285D01*
X120442857Y-37928571D02*
X120442857Y-36928571D01*
X120442857Y-36428571D02*
X120514285Y-36500000D01*
X120442857Y-36571428D01*
X120371428Y-36500000D01*
X120442857Y-36428571D01*
X120442857Y-36571428D01*
X118585714Y-37928571D02*
X118585714Y-36428571D01*
X118014285Y-36428571D01*
X117871428Y-36500000D01*
X117799999Y-36571428D01*
X117728571Y-36714285D01*
X117728571Y-36928571D01*
X117799999Y-37071428D01*
X117871428Y-37142857D01*
X118014285Y-37214285D01*
X118585714Y-37214285D01*
X117085714Y-37928571D02*
X117085714Y-36928571D01*
X117085714Y-36428571D02*
X117157142Y-36500000D01*
X117085714Y-36571428D01*
X117014285Y-36500000D01*
X117085714Y-36428571D01*
X117085714Y-36571428D01*
X115728571Y-37857142D02*
X115871428Y-37928571D01*
X116157142Y-37928571D01*
X116299999Y-37857142D01*
X116371428Y-37785714D01*
X116442857Y-37642857D01*
X116442857Y-37214285D01*
X116371428Y-37071428D01*
X116299999Y-37000000D01*
X116157142Y-36928571D01*
X115871428Y-36928571D01*
X115728571Y-37000000D01*
X114871428Y-37928571D02*
X115014285Y-37857142D01*
X115085714Y-37785714D01*
X115157142Y-37642857D01*
X115157142Y-37214285D01*
X115085714Y-37071428D01*
X115014285Y-37000000D01*
X114871428Y-36928571D01*
X114657142Y-36928571D01*
X114514285Y-37000000D01*
X114442857Y-37071428D01*
X114371428Y-37214285D01*
X114371428Y-37642857D01*
X114442857Y-37785714D01*
X114514285Y-37857142D01*
X114657142Y-37928571D01*
X114871428Y-37928571D01*
X112585714Y-37928571D02*
X112585714Y-36428571D01*
X112228571Y-36428571D01*
X112014285Y-36500000D01*
X111871428Y-36642857D01*
X111799999Y-36785714D01*
X111728571Y-37071428D01*
X111728571Y-37285714D01*
X111799999Y-37571428D01*
X111871428Y-37714285D01*
X112014285Y-37857142D01*
X112228571Y-37928571D01*
X112585714Y-37928571D01*
X110228571Y-37785714D02*
X110299999Y-37857142D01*
X110514285Y-37928571D01*
X110657142Y-37928571D01*
X110871428Y-37857142D01*
X111014285Y-37714285D01*
X111085714Y-37571428D01*
X111157142Y-37285714D01*
X111157142Y-37071428D01*
X111085714Y-36785714D01*
X111014285Y-36642857D01*
X110871428Y-36500000D01*
X110657142Y-36428571D01*
X110514285Y-36428571D01*
X110299999Y-36500000D01*
X110228571Y-36571428D01*
X109299999Y-36428571D02*
X109014285Y-36428571D01*
X108871428Y-36500000D01*
X108728571Y-36642857D01*
X108657142Y-36928571D01*
X108657142Y-37428571D01*
X108728571Y-37714285D01*
X108871428Y-37857142D01*
X109014285Y-37928571D01*
X109299999Y-37928571D01*
X109442857Y-37857142D01*
X109585714Y-37714285D01*
X109657142Y-37428571D01*
X109657142Y-36928571D01*
X109585714Y-36642857D01*
X109442857Y-36500000D01*
X109299999Y-36428571D01*
X107014285Y-36928571D02*
X106657142Y-37928571D01*
X106299999Y-36928571D01*
X105799999Y-36571428D02*
X105728571Y-36500000D01*
X105585714Y-36428571D01*
X105228571Y-36428571D01*
X105085714Y-36500000D01*
X105014285Y-36571428D01*
X104942857Y-36714285D01*
X104942857Y-36857142D01*
X105014285Y-37071428D01*
X105871428Y-37928571D01*
X104942857Y-37928571D01*
X104299999Y-37785714D02*
X104228571Y-37857142D01*
X104299999Y-37928571D01*
X104371428Y-37857142D01*
X104299999Y-37785714D01*
X104299999Y-37928571D01*
X103299999Y-36428571D02*
X103157142Y-36428571D01*
X103014285Y-36500000D01*
X102942857Y-36571428D01*
X102871428Y-36714285D01*
X102799999Y-37000000D01*
X102799999Y-37357142D01*
X102871428Y-37642857D01*
X102942857Y-37785714D01*
X103014285Y-37857142D01*
X103157142Y-37928571D01*
X103299999Y-37928571D01*
X103442857Y-37857142D01*
X103514285Y-37785714D01*
X103585714Y-37642857D01*
X103657142Y-37357142D01*
X103657142Y-37000000D01*
X103585714Y-36714285D01*
X103514285Y-36571428D01*
X103442857Y-36500000D01*
X103299999Y-36428571D01*
X102157142Y-37785714D02*
X102085714Y-37857142D01*
X102157142Y-37928571D01*
X102228571Y-37857142D01*
X102157142Y-37785714D01*
X102157142Y-37928571D01*
X101157142Y-36428571D02*
X101014285Y-36428571D01*
X100871428Y-36500000D01*
X100799999Y-36571428D01*
X100728571Y-36714285D01*
X100657142Y-37000000D01*
X100657142Y-37357142D01*
X100728571Y-37642857D01*
X100799999Y-37785714D01*
X100871428Y-37857142D01*
X101014285Y-37928571D01*
X101157142Y-37928571D01*
X101299999Y-37857142D01*
X101371428Y-37785714D01*
X101442857Y-37642857D01*
X101514285Y-37357142D01*
X101514285Y-37000000D01*
X101442857Y-36714285D01*
X101371428Y-36571428D01*
X101299999Y-36500000D01*
X101157142Y-36428571D01*
X131192857Y-38978571D02*
X131192857Y-40050000D01*
X131264285Y-40264285D01*
X131407142Y-40407142D01*
X131621428Y-40478571D01*
X131764285Y-40478571D01*
X129835714Y-40478571D02*
X129835714Y-39692857D01*
X129907142Y-39550000D01*
X130050000Y-39478571D01*
X130335714Y-39478571D01*
X130478571Y-39550000D01*
X129835714Y-40407142D02*
X129978571Y-40478571D01*
X130335714Y-40478571D01*
X130478571Y-40407142D01*
X130550000Y-40264285D01*
X130550000Y-40121428D01*
X130478571Y-39978571D01*
X130335714Y-39907142D01*
X129978571Y-39907142D01*
X129835714Y-39835714D01*
X129121428Y-39478571D02*
X129121428Y-40478571D01*
X129121428Y-39621428D02*
X129050000Y-39550000D01*
X128907142Y-39478571D01*
X128692857Y-39478571D01*
X128550000Y-39550000D01*
X128478571Y-39692857D01*
X128478571Y-40478571D01*
X126621428Y-40478571D02*
X126621428Y-38978571D01*
X125764285Y-40478571D02*
X126407142Y-39621428D01*
X125764285Y-38978571D02*
X126621428Y-39835714D01*
X125121428Y-39478571D02*
X125121428Y-40478571D01*
X125121428Y-39621428D02*
X125050000Y-39550000D01*
X124907142Y-39478571D01*
X124692857Y-39478571D01*
X124550000Y-39550000D01*
X124478571Y-39692857D01*
X124478571Y-40478571D01*
X123764285Y-40478571D02*
X123764285Y-39478571D01*
X123764285Y-38978571D02*
X123835714Y-39050000D01*
X123764285Y-39121428D01*
X123692857Y-39050000D01*
X123764285Y-38978571D01*
X123764285Y-39121428D01*
X123050000Y-39478571D02*
X123050000Y-40978571D01*
X123050000Y-39550000D02*
X122907142Y-39478571D01*
X122621428Y-39478571D01*
X122478571Y-39550000D01*
X122407142Y-39621428D01*
X122335714Y-39764285D01*
X122335714Y-40192857D01*
X122407142Y-40335714D01*
X122478571Y-40407142D01*
X122621428Y-40478571D01*
X122907142Y-40478571D01*
X123050000Y-40407142D01*
X121692857Y-39478571D02*
X121692857Y-40978571D01*
X121692857Y-39550000D02*
X121550000Y-39478571D01*
X121264285Y-39478571D01*
X121121428Y-39550000D01*
X121050000Y-39621428D01*
X120978571Y-39764285D01*
X120978571Y-40192857D01*
X121050000Y-40335714D01*
X121121428Y-40407142D01*
X121264285Y-40478571D01*
X121550000Y-40478571D01*
X121692857Y-40407142D01*
X119764285Y-40407142D02*
X119907142Y-40478571D01*
X120192857Y-40478571D01*
X120335714Y-40407142D01*
X120407142Y-40264285D01*
X120407142Y-39692857D01*
X120335714Y-39550000D01*
X120192857Y-39478571D01*
X119907142Y-39478571D01*
X119764285Y-39550000D01*
X119692857Y-39692857D01*
X119692857Y-39835714D01*
X120407142Y-39978571D01*
X119050000Y-40478571D02*
X119050000Y-39478571D01*
X119050000Y-39764285D02*
X118978571Y-39621428D01*
X118907142Y-39550000D01*
X118764285Y-39478571D01*
X118621428Y-39478571D01*
X117050000Y-39121428D02*
X116978571Y-39050000D01*
X116835714Y-38978571D01*
X116478571Y-38978571D01*
X116335714Y-39050000D01*
X116264285Y-39121428D01*
X116192857Y-39264285D01*
X116192857Y-39407142D01*
X116264285Y-39621428D01*
X117121428Y-40478571D01*
X116192857Y-40478571D01*
X115264285Y-38978571D02*
X115121428Y-38978571D01*
X114978571Y-39050000D01*
X114907142Y-39121428D01*
X114835714Y-39264285D01*
X114764285Y-39550000D01*
X114764285Y-39907142D01*
X114835714Y-40192857D01*
X114907142Y-40335714D01*
X114978571Y-40407142D01*
X115121428Y-40478571D01*
X115264285Y-40478571D01*
X115407142Y-40407142D01*
X115478571Y-40335714D01*
X115550000Y-40192857D01*
X115621428Y-39907142D01*
X115621428Y-39550000D01*
X115550000Y-39264285D01*
X115478571Y-39121428D01*
X115407142Y-39050000D01*
X115264285Y-38978571D01*
X114192857Y-39121428D02*
X114121428Y-39050000D01*
X113978571Y-38978571D01*
X113621428Y-38978571D01*
X113478571Y-39050000D01*
X113407142Y-39121428D01*
X113335714Y-39264285D01*
X113335714Y-39407142D01*
X113407142Y-39621428D01*
X114264285Y-40478571D01*
X113335714Y-40478571D01*
X111907142Y-40478571D02*
X112764285Y-40478571D01*
X112335714Y-40478571D02*
X112335714Y-38978571D01*
X112478571Y-39192857D01*
X112621428Y-39335714D01*
X112764285Y-39407142D01*
X137550000Y-42028571D02*
X137550000Y-43242857D01*
X137621428Y-43385714D01*
X137692857Y-43457142D01*
X137835714Y-43528571D01*
X138050000Y-43528571D01*
X138192857Y-43457142D01*
X137550000Y-42957142D02*
X137692857Y-43028571D01*
X137978571Y-43028571D01*
X138121428Y-42957142D01*
X138192857Y-42885714D01*
X138264285Y-42742857D01*
X138264285Y-42314285D01*
X138192857Y-42171428D01*
X138121428Y-42100000D01*
X137978571Y-42028571D01*
X137692857Y-42028571D01*
X137550000Y-42100000D01*
X136835714Y-43028571D02*
X136835714Y-42028571D01*
X136835714Y-41528571D02*
X136907142Y-41600000D01*
X136835714Y-41671428D01*
X136764285Y-41600000D01*
X136835714Y-41528571D01*
X136835714Y-41671428D01*
X136335714Y-42028571D02*
X135764285Y-42028571D01*
X136121428Y-41528571D02*
X136121428Y-42814285D01*
X136050000Y-42957142D01*
X135907142Y-43028571D01*
X135764285Y-43028571D01*
X135264285Y-43028571D02*
X135264285Y-41528571D01*
X134621428Y-43028571D02*
X134621428Y-42242857D01*
X134692857Y-42100000D01*
X134835714Y-42028571D01*
X135050000Y-42028571D01*
X135192857Y-42100000D01*
X135264285Y-42171428D01*
X133264285Y-42028571D02*
X133264285Y-43028571D01*
X133907142Y-42028571D02*
X133907142Y-42814285D01*
X133835714Y-42957142D01*
X133692857Y-43028571D01*
X133478571Y-43028571D01*
X133335714Y-42957142D01*
X133264285Y-42885714D01*
X132550000Y-43028571D02*
X132550000Y-41528571D01*
X132550000Y-42100000D02*
X132407142Y-42028571D01*
X132121428Y-42028571D01*
X131978571Y-42100000D01*
X131907142Y-42171428D01*
X131835714Y-42314285D01*
X131835714Y-42742857D01*
X131907142Y-42885714D01*
X131978571Y-42957142D01*
X132121428Y-43028571D01*
X132407142Y-43028571D01*
X132550000Y-42957142D01*
X131192857Y-42885714D02*
X131121428Y-42957142D01*
X131192857Y-43028571D01*
X131264285Y-42957142D01*
X131192857Y-42885714D01*
X131192857Y-43028571D01*
X129835714Y-42957142D02*
X129978571Y-43028571D01*
X130264285Y-43028571D01*
X130407142Y-42957142D01*
X130478571Y-42885714D01*
X130550000Y-42742857D01*
X130550000Y-42314285D01*
X130478571Y-42171428D01*
X130407142Y-42100000D01*
X130264285Y-42028571D01*
X129978571Y-42028571D01*
X129835714Y-42100000D01*
X128978571Y-43028571D02*
X129121428Y-42957142D01*
X129192857Y-42885714D01*
X129264285Y-42742857D01*
X129264285Y-42314285D01*
X129192857Y-42171428D01*
X129121428Y-42100000D01*
X128978571Y-42028571D01*
X128764285Y-42028571D01*
X128621428Y-42100000D01*
X128550000Y-42171428D01*
X128478571Y-42314285D01*
X128478571Y-42742857D01*
X128550000Y-42885714D01*
X128621428Y-42957142D01*
X128764285Y-43028571D01*
X128978571Y-43028571D01*
X127835714Y-43028571D02*
X127835714Y-42028571D01*
X127835714Y-42171428D02*
X127764285Y-42100000D01*
X127621428Y-42028571D01*
X127407142Y-42028571D01*
X127264285Y-42100000D01*
X127192857Y-42242857D01*
X127192857Y-43028571D01*
X127192857Y-42242857D02*
X127121428Y-42100000D01*
X126978571Y-42028571D01*
X126764285Y-42028571D01*
X126621428Y-42100000D01*
X126550000Y-42242857D01*
X126550000Y-43028571D01*
X124764285Y-41457142D02*
X126050000Y-43385714D01*
X124264285Y-42028571D02*
X124264285Y-43528571D01*
X124264285Y-42100000D02*
X124121428Y-42028571D01*
X123835714Y-42028571D01*
X123692857Y-42100000D01*
X123621428Y-42171428D01*
X123550000Y-42314285D01*
X123550000Y-42742857D01*
X123621428Y-42885714D01*
X123692857Y-42957142D01*
X123835714Y-43028571D01*
X124121428Y-43028571D01*
X124264285Y-42957142D01*
X122692857Y-43028571D02*
X122835714Y-42957142D01*
X122907142Y-42885714D01*
X122978571Y-42742857D01*
X122978571Y-42314285D01*
X122907142Y-42171428D01*
X122835714Y-42100000D01*
X122692857Y-42028571D01*
X122478571Y-42028571D01*
X122335714Y-42100000D01*
X122264285Y-42171428D01*
X122192857Y-42314285D01*
X122192857Y-42742857D01*
X122264285Y-42885714D01*
X122335714Y-42957142D01*
X122478571Y-43028571D01*
X122692857Y-43028571D01*
X121335714Y-43028571D02*
X121478571Y-42957142D01*
X121550000Y-42814285D01*
X121550000Y-41528571D01*
X120907142Y-42028571D02*
X120550000Y-43028571D01*
X120192857Y-42028571D02*
X120550000Y-43028571D01*
X120692857Y-43385714D01*
X120764285Y-43457142D01*
X120907142Y-43528571D01*
X119621428Y-43028571D02*
X119621428Y-41528571D01*
X119478571Y-42457142D02*
X119050000Y-43028571D01*
X119050000Y-42028571D02*
X119621428Y-42600000D01*
X118407142Y-43028571D02*
X118407142Y-42028571D01*
X118407142Y-41528571D02*
X118478571Y-41600000D01*
X118407142Y-41671428D01*
X118335714Y-41600000D01*
X118407142Y-41528571D01*
X118407142Y-41671428D01*
X117907142Y-42028571D02*
X117335714Y-42028571D01*
X117692857Y-41528571D02*
X117692857Y-42814285D01*
X117621428Y-42957142D01*
X117478571Y-43028571D01*
X117335714Y-43028571D01*
X115764285Y-41457142D02*
X117050000Y-43385714D01*
X115264285Y-42028571D02*
X115264285Y-43528571D01*
X115264285Y-42100000D02*
X115121428Y-42028571D01*
X114835714Y-42028571D01*
X114692857Y-42100000D01*
X114621428Y-42171428D01*
X114550000Y-42314285D01*
X114550000Y-42742857D01*
X114621428Y-42885714D01*
X114692857Y-42957142D01*
X114835714Y-43028571D01*
X115121428Y-43028571D01*
X115264285Y-42957142D01*
X113907142Y-43028571D02*
X113907142Y-42028571D01*
X113907142Y-41528571D02*
X113978571Y-41600000D01*
X113907142Y-41671428D01*
X113835714Y-41600000D01*
X113907142Y-41528571D01*
X113907142Y-41671428D01*
X112550000Y-42957142D02*
X112692857Y-43028571D01*
X112978571Y-43028571D01*
X113121428Y-42957142D01*
X113192857Y-42885714D01*
X113264285Y-42742857D01*
X113264285Y-42314285D01*
X113192857Y-42171428D01*
X113121428Y-42100000D01*
X112978571Y-42028571D01*
X112692857Y-42028571D01*
X112550000Y-42100000D01*
X111692857Y-43028571D02*
X111835714Y-42957142D01*
X111907142Y-42885714D01*
X111978571Y-42742857D01*
X111978571Y-42314285D01*
X111907142Y-42171428D01*
X111835714Y-42100000D01*
X111692857Y-42028571D01*
X111478571Y-42028571D01*
X111335714Y-42100000D01*
X111264285Y-42171428D01*
X111192857Y-42314285D01*
X111192857Y-42742857D01*
X111264285Y-42885714D01*
X111335714Y-42957142D01*
X111478571Y-43028571D01*
X111692857Y-43028571D01*
X110550000Y-42457142D02*
X109407142Y-42457142D01*
X108050000Y-43028571D02*
X108050000Y-41528571D01*
X108050000Y-42957142D02*
X108192857Y-43028571D01*
X108478571Y-43028571D01*
X108621428Y-42957142D01*
X108692857Y-42885714D01*
X108764285Y-42742857D01*
X108764285Y-42314285D01*
X108692857Y-42171428D01*
X108621428Y-42100000D01*
X108478571Y-42028571D01*
X108192857Y-42028571D01*
X108050000Y-42100000D01*
X106692857Y-42957142D02*
X106835714Y-43028571D01*
X107121428Y-43028571D01*
X107264285Y-42957142D01*
X107335714Y-42885714D01*
X107407142Y-42742857D01*
X107407142Y-42314285D01*
X107335714Y-42171428D01*
X107264285Y-42100000D01*
X107121428Y-42028571D01*
X106835714Y-42028571D01*
X106692857Y-42100000D01*
X105835714Y-43028571D02*
X105978571Y-42957142D01*
X106050000Y-42885714D01*
X106121428Y-42742857D01*
X106121428Y-42314285D01*
X106050000Y-42171428D01*
X105978571Y-42100000D01*
X105835714Y-42028571D01*
X105621428Y-42028571D01*
X105478571Y-42100000D01*
X105407142Y-42171428D01*
X105335714Y-42314285D01*
X105335714Y-42742857D01*
X105407142Y-42885714D01*
X105478571Y-42957142D01*
X105621428Y-43028571D01*
X105835714Y-43028571D01*
D11*
%TO.C,G\u002A\u002A\u002A*%
G36*
X95148727Y-34181562D02*
G01*
X95006341Y-34199840D01*
X94907792Y-34234138D01*
X94880527Y-34250115D01*
X94782092Y-34298046D01*
X94694109Y-34289155D01*
X94662103Y-34275939D01*
X94522861Y-34251931D01*
X94394397Y-34295758D01*
X94292602Y-34390743D01*
X94233370Y-34520209D01*
X94232591Y-34667479D01*
X94246082Y-34712506D01*
X94268332Y-34806354D01*
X94258995Y-34912349D01*
X94215150Y-35061804D01*
X94212899Y-35068367D01*
X94167021Y-35229042D01*
X94122097Y-35431449D01*
X94087508Y-35633074D01*
X94086244Y-35642184D01*
X94063905Y-35902991D01*
X94072552Y-36160293D01*
X94115130Y-36433849D01*
X94194586Y-36743419D01*
X94298062Y-37063384D01*
X94371579Y-37294264D01*
X94438877Y-37538150D01*
X94491029Y-37760979D01*
X94513797Y-37886557D01*
X94544826Y-38279514D01*
X94531640Y-38698677D01*
X94477640Y-39117957D01*
X94386225Y-39511263D01*
X94260796Y-39852505D01*
X94256304Y-39862175D01*
X94178675Y-40058062D01*
X94155042Y-40196770D01*
X94185493Y-40275443D01*
X94243473Y-40293334D01*
X94263214Y-40292783D01*
X94278414Y-40296604D01*
X94288193Y-40313003D01*
X94291675Y-40350188D01*
X94287983Y-40416365D01*
X94276238Y-40519743D01*
X94255564Y-40668528D01*
X94225082Y-40870929D01*
X94183916Y-41135151D01*
X94131186Y-41469403D01*
X94089576Y-41732667D01*
X94038680Y-42058409D01*
X94000908Y-42311126D01*
X93975303Y-42501281D01*
X93960912Y-42639334D01*
X93956778Y-42735750D01*
X93961946Y-42800991D01*
X93975461Y-42845519D01*
X93986177Y-42865084D01*
X94012616Y-42901132D01*
X94047821Y-42926711D01*
X94105349Y-42943614D01*
X94198756Y-42953633D01*
X94341600Y-42958561D01*
X94547437Y-42960192D01*
X94706398Y-42960334D01*
X95366178Y-42960334D01*
X95337403Y-42843917D01*
X95253079Y-42671733D01*
X95100713Y-42533128D01*
X94893428Y-42437585D01*
X94725628Y-42401776D01*
X94684480Y-42390011D01*
X94684744Y-42363384D01*
X94734390Y-42312408D01*
X94841384Y-42227596D01*
X94923631Y-42166006D01*
X95075569Y-42042976D01*
X95258914Y-41879071D01*
X95449105Y-41696941D01*
X95600781Y-41541550D01*
X95977721Y-41139923D01*
X96158506Y-41383378D01*
X96340846Y-41651960D01*
X96477303Y-41913283D01*
X96583603Y-42201223D01*
X96649561Y-42441063D01*
X96697302Y-42619602D01*
X96744173Y-42770602D01*
X96783144Y-42872431D01*
X96798515Y-42899463D01*
X96836274Y-42923838D01*
X96910448Y-42941092D01*
X97032781Y-42952244D01*
X97215015Y-42958312D01*
X97468895Y-42960317D01*
X97500017Y-42960334D01*
X98151000Y-42960334D01*
X98151000Y-42850267D01*
X98111440Y-42716465D01*
X98003469Y-42590405D01*
X97843148Y-42485548D01*
X97646539Y-42415357D01*
X97627025Y-42411078D01*
X97490673Y-42379695D01*
X97420930Y-42350928D01*
X97400856Y-42313672D01*
X97409703Y-42268598D01*
X97423782Y-42189081D01*
X97438962Y-42047537D01*
X97453085Y-41866542D01*
X97460998Y-41732138D01*
X97453047Y-41288761D01*
X97378401Y-40880815D01*
X97232253Y-40493175D01*
X97009792Y-40110716D01*
X96894645Y-39950885D01*
X96683023Y-39671937D01*
X96760134Y-39294718D01*
X96795271Y-39108075D01*
X96822202Y-38936985D01*
X96836640Y-38809820D01*
X96837955Y-38779917D01*
X96853106Y-38677094D01*
X96901112Y-38642513D01*
X96906583Y-38642334D01*
X96968457Y-38650462D01*
X97098606Y-38673030D01*
X97282399Y-38707317D01*
X97505201Y-38750598D01*
X97727606Y-38795117D01*
X98480712Y-38947901D01*
X98887356Y-38705235D01*
X99050461Y-38603389D01*
X99182373Y-38512436D01*
X99268258Y-38443172D01*
X99294000Y-38409153D01*
X99256814Y-38340222D01*
X99164120Y-38275224D01*
X99044214Y-38230146D01*
X98957430Y-38219000D01*
X98835623Y-38230272D01*
X98685484Y-38258471D01*
X98637248Y-38270433D01*
X98444948Y-38321865D01*
X97641807Y-37922073D01*
X97404112Y-37802736D01*
X97194440Y-37695524D01*
X97023833Y-37606245D01*
X96903336Y-37540707D01*
X96843991Y-37504717D01*
X96839707Y-37500224D01*
X96872351Y-37469530D01*
X96963215Y-37395765D01*
X97102640Y-37286464D01*
X97280967Y-37149159D01*
X97488537Y-36991385D01*
X97594593Y-36911443D01*
X98348438Y-36344719D01*
X98525117Y-35958943D01*
X98600050Y-35790252D01*
X98659166Y-35647504D01*
X98694732Y-35549926D01*
X98701565Y-35520250D01*
X98664089Y-35489954D01*
X98570848Y-35471310D01*
X98450157Y-35466005D01*
X98330327Y-35475725D01*
X98258180Y-35493841D01*
X98199478Y-35542078D01*
X98117899Y-35640043D01*
X98049114Y-35739184D01*
X97909127Y-35958020D01*
X97155255Y-36241924D01*
X96920229Y-36329769D01*
X96714371Y-36405444D01*
X96549968Y-36464537D01*
X96439305Y-36502636D01*
X96394670Y-36515328D01*
X96394343Y-36515164D01*
X96367289Y-36478393D01*
X96304169Y-36393711D01*
X96234830Y-36301055D01*
X96145953Y-36167499D01*
X96078604Y-36039097D01*
X96054603Y-35971251D01*
X96059928Y-35822371D01*
X96131053Y-35693875D01*
X96252102Y-35614077D01*
X96255455Y-35613005D01*
X96363969Y-35554951D01*
X96412119Y-35479810D01*
X96395765Y-35407526D01*
X96310764Y-35358045D01*
X96308512Y-35357470D01*
X96197386Y-35297742D01*
X96110508Y-35197547D01*
X96076666Y-35092695D01*
X96097181Y-35057582D01*
X96169756Y-35046342D01*
X96285190Y-35053265D01*
X96414226Y-35060792D01*
X96492751Y-35043594D01*
X96553961Y-34989660D01*
X96590062Y-34942981D01*
X96671213Y-34769026D01*
X96688456Y-34621414D01*
X96690500Y-34430167D01*
X96436500Y-34418927D01*
X96143944Y-34369994D01*
X95949666Y-34291927D01*
X95815625Y-34231851D01*
X95692298Y-34196679D01*
X95547742Y-34180191D01*
X95355081Y-34176167D01*
X95148727Y-34181562D01*
G37*
X95148727Y-34181562D02*
X95006341Y-34199840D01*
X94907792Y-34234138D01*
X94880527Y-34250115D01*
X94782092Y-34298046D01*
X94694109Y-34289155D01*
X94662103Y-34275939D01*
X94522861Y-34251931D01*
X94394397Y-34295758D01*
X94292602Y-34390743D01*
X94233370Y-34520209D01*
X94232591Y-34667479D01*
X94246082Y-34712506D01*
X94268332Y-34806354D01*
X94258995Y-34912349D01*
X94215150Y-35061804D01*
X94212899Y-35068367D01*
X94167021Y-35229042D01*
X94122097Y-35431449D01*
X94087508Y-35633074D01*
X94086244Y-35642184D01*
X94063905Y-35902991D01*
X94072552Y-36160293D01*
X94115130Y-36433849D01*
X94194586Y-36743419D01*
X94298062Y-37063384D01*
X94371579Y-37294264D01*
X94438877Y-37538150D01*
X94491029Y-37760979D01*
X94513797Y-37886557D01*
X94544826Y-38279514D01*
X94531640Y-38698677D01*
X94477640Y-39117957D01*
X94386225Y-39511263D01*
X94260796Y-39852505D01*
X94256304Y-39862175D01*
X94178675Y-40058062D01*
X94155042Y-40196770D01*
X94185493Y-40275443D01*
X94243473Y-40293334D01*
X94263214Y-40292783D01*
X94278414Y-40296604D01*
X94288193Y-40313003D01*
X94291675Y-40350188D01*
X94287983Y-40416365D01*
X94276238Y-40519743D01*
X94255564Y-40668528D01*
X94225082Y-40870929D01*
X94183916Y-41135151D01*
X94131186Y-41469403D01*
X94089576Y-41732667D01*
X94038680Y-42058409D01*
X94000908Y-42311126D01*
X93975303Y-42501281D01*
X93960912Y-42639334D01*
X93956778Y-42735750D01*
X93961946Y-42800991D01*
X93975461Y-42845519D01*
X93986177Y-42865084D01*
X94012616Y-42901132D01*
X94047821Y-42926711D01*
X94105349Y-42943614D01*
X94198756Y-42953633D01*
X94341600Y-42958561D01*
X94547437Y-42960192D01*
X94706398Y-42960334D01*
X95366178Y-42960334D01*
X95337403Y-42843917D01*
X95253079Y-42671733D01*
X95100713Y-42533128D01*
X94893428Y-42437585D01*
X94725628Y-42401776D01*
X94684480Y-42390011D01*
X94684744Y-42363384D01*
X94734390Y-42312408D01*
X94841384Y-42227596D01*
X94923631Y-42166006D01*
X95075569Y-42042976D01*
X95258914Y-41879071D01*
X95449105Y-41696941D01*
X95600781Y-41541550D01*
X95977721Y-41139923D01*
X96158506Y-41383378D01*
X96340846Y-41651960D01*
X96477303Y-41913283D01*
X96583603Y-42201223D01*
X96649561Y-42441063D01*
X96697302Y-42619602D01*
X96744173Y-42770602D01*
X96783144Y-42872431D01*
X96798515Y-42899463D01*
X96836274Y-42923838D01*
X96910448Y-42941092D01*
X97032781Y-42952244D01*
X97215015Y-42958312D01*
X97468895Y-42960317D01*
X97500017Y-42960334D01*
X98151000Y-42960334D01*
X98151000Y-42850267D01*
X98111440Y-42716465D01*
X98003469Y-42590405D01*
X97843148Y-42485548D01*
X97646539Y-42415357D01*
X97627025Y-42411078D01*
X97490673Y-42379695D01*
X97420930Y-42350928D01*
X97400856Y-42313672D01*
X97409703Y-42268598D01*
X97423782Y-42189081D01*
X97438962Y-42047537D01*
X97453085Y-41866542D01*
X97460998Y-41732138D01*
X97453047Y-41288761D01*
X97378401Y-40880815D01*
X97232253Y-40493175D01*
X97009792Y-40110716D01*
X96894645Y-39950885D01*
X96683023Y-39671937D01*
X96760134Y-39294718D01*
X96795271Y-39108075D01*
X96822202Y-38936985D01*
X96836640Y-38809820D01*
X96837955Y-38779917D01*
X96853106Y-38677094D01*
X96901112Y-38642513D01*
X96906583Y-38642334D01*
X96968457Y-38650462D01*
X97098606Y-38673030D01*
X97282399Y-38707317D01*
X97505201Y-38750598D01*
X97727606Y-38795117D01*
X98480712Y-38947901D01*
X98887356Y-38705235D01*
X99050461Y-38603389D01*
X99182373Y-38512436D01*
X99268258Y-38443172D01*
X99294000Y-38409153D01*
X99256814Y-38340222D01*
X99164120Y-38275224D01*
X99044214Y-38230146D01*
X98957430Y-38219000D01*
X98835623Y-38230272D01*
X98685484Y-38258471D01*
X98637248Y-38270433D01*
X98444948Y-38321865D01*
X97641807Y-37922073D01*
X97404112Y-37802736D01*
X97194440Y-37695524D01*
X97023833Y-37606245D01*
X96903336Y-37540707D01*
X96843991Y-37504717D01*
X96839707Y-37500224D01*
X96872351Y-37469530D01*
X96963215Y-37395765D01*
X97102640Y-37286464D01*
X97280967Y-37149159D01*
X97488537Y-36991385D01*
X97594593Y-36911443D01*
X98348438Y-36344719D01*
X98525117Y-35958943D01*
X98600050Y-35790252D01*
X98659166Y-35647504D01*
X98694732Y-35549926D01*
X98701565Y-35520250D01*
X98664089Y-35489954D01*
X98570848Y-35471310D01*
X98450157Y-35466005D01*
X98330327Y-35475725D01*
X98258180Y-35493841D01*
X98199478Y-35542078D01*
X98117899Y-35640043D01*
X98049114Y-35739184D01*
X97909127Y-35958020D01*
X97155255Y-36241924D01*
X96920229Y-36329769D01*
X96714371Y-36405444D01*
X96549968Y-36464537D01*
X96439305Y-36502636D01*
X96394670Y-36515328D01*
X96394343Y-36515164D01*
X96367289Y-36478393D01*
X96304169Y-36393711D01*
X96234830Y-36301055D01*
X96145953Y-36167499D01*
X96078604Y-36039097D01*
X96054603Y-35971251D01*
X96059928Y-35822371D01*
X96131053Y-35693875D01*
X96252102Y-35614077D01*
X96255455Y-35613005D01*
X96363969Y-35554951D01*
X96412119Y-35479810D01*
X96395765Y-35407526D01*
X96310764Y-35358045D01*
X96308512Y-35357470D01*
X96197386Y-35297742D01*
X96110508Y-35197547D01*
X96076666Y-35092695D01*
X96097181Y-35057582D01*
X96169756Y-35046342D01*
X96285190Y-35053265D01*
X96414226Y-35060792D01*
X96492751Y-35043594D01*
X96553961Y-34989660D01*
X96590062Y-34942981D01*
X96671213Y-34769026D01*
X96688456Y-34621414D01*
X96690500Y-34430167D01*
X96436500Y-34418927D01*
X96143944Y-34369994D01*
X95949666Y-34291927D01*
X95815625Y-34231851D01*
X95692298Y-34196679D01*
X95547742Y-34180191D01*
X95355081Y-34176167D01*
X95148727Y-34181562D01*
%TD*%
M02*
