M48
; DRILL file {KiCad 5.1.10-88a1d61d58~88~ubuntu20.10.1} date Sun May 23 21:39:32 2021
; FORMAT={-:-/ absolute / inch / decimal}
; #@! TF.CreationDate,2021-05-23T21:39:32+02:00
; #@! TF.GenerationSoftware,Kicad,Pcbnew,5.1.10-88a1d61d58~88~ubuntu20.10.1
; #@! TF.FileFunction,Plated,1,2,PTH
FMAT,2
INCH
T1C0.0150
T2C0.0315
T3C0.0394
T4C0.0402
T5C0.0433
T6C0.0469
T7C0.1181
%
G90
G05
T1
X2.0215Y-2.9982
X2.0215Y-4.5533
X2.0215Y-6.0766
X3.3031Y-5.437
X3.4016Y-3.0984
X3.4016Y-4.6614
X3.6241Y-5.0727
X3.6969Y-2.2087
X4.252Y-5.8543
X4.3792Y-4.361
X4.4035Y-4.4508
X4.4882Y-3.6535
X5.8407Y-3.1931
X5.8407Y-4.7695
X5.8407Y-6.3443
T2
X2.0697Y-3.7232
X2.0709Y-2.3925
X2.0709Y-2.7925
X2.0709Y-3.1264
X2.0709Y-3.5264
X2.076Y-5.2823
X2.0772Y-3.9516
X2.0772Y-4.3516
X2.0772Y-4.6854
X2.0772Y-5.0854
X2.0858Y-6.8476
X2.087Y-5.5169
X2.087Y-5.9169
X2.087Y-6.2508
X2.087Y-6.6508
X2.1654Y-1.9882
X2.1697Y-3.8232
X2.176Y-5.3823
X2.1858Y-6.9476
X2.2205Y-2.3925
X2.2205Y-2.7925
X2.2268Y-3.9516
X2.2268Y-4.3516
X2.2366Y-5.5169
X2.2366Y-5.9169
X2.2441Y-1.9882
X2.2539Y-1.3878
X2.2539Y-1.7878
X2.2598Y-2.9201
X2.2598Y-3.1169
X2.2661Y-4.4791
X2.2661Y-4.676
X2.2697Y-3.7232
X2.276Y-5.2823
X2.276Y-6.0445
X2.276Y-6.2413
X2.2858Y-6.8476
X2.3386Y-3.3925
X2.3449Y-4.9516
X2.3547Y-6.5169
X2.3976Y-3.802
X2.3992Y-3.6248
X2.4039Y-5.361
X2.4055Y-5.1839
X2.4138Y-6.9264
X2.4154Y-6.7492
X2.4173Y-2.5028
X2.4173Y-2.5815
X2.4236Y-4.0618
X2.4236Y-4.1406
X2.4311Y-1.3878
X2.4311Y-1.7878
X2.4335Y-5.6272
X2.4335Y-5.7059
X2.4508Y-2.126
X2.4567Y-2.8622
X2.4567Y-3.1622
X2.463Y-4.4213
X2.463Y-4.7213
X2.4728Y-5.9866
X2.4728Y-6.2866
X2.5295Y-2.126
X2.5354Y-3.3925
X2.5417Y-4.9516
X2.5516Y-6.5169
X2.5567Y-2.8622
X2.5567Y-3.1622
X2.563Y-4.4213
X2.563Y-4.7213
X2.5728Y-5.9866
X2.5728Y-6.2866
X2.6039Y-2.4083
X2.6039Y-2.5559
X2.6102Y-3.9673
X2.6102Y-4.115
X2.6201Y-5.5327
X2.6201Y-5.6803
X2.6567Y-2.8622
X2.6567Y-3.1622
X2.663Y-4.4213
X2.663Y-4.7213
X2.6728Y-5.9866
X2.6728Y-6.2866
X2.6732Y-3.3197
X2.6768Y-3.4673
X2.6795Y-4.8787
X2.6831Y-5.0264
X2.6894Y-6.4441
X2.6929Y-6.5917
X2.6969Y-1.4764
X2.6969Y-2.2047
X2.7567Y-2.8622
X2.7567Y-3.1622
X2.763Y-4.4213
X2.763Y-4.7213
X2.7728Y-5.9866
X2.7728Y-6.2866
X2.7976Y-3.802
X2.7992Y-3.6248
X2.8039Y-5.361
X2.8055Y-5.1839
X2.8138Y-6.9264
X2.8154Y-6.7492
X2.8567Y-2.8622
X2.8567Y-3.1622
X2.863Y-4.4213
X2.863Y-4.7213
X2.8728Y-5.9866
X2.8728Y-6.2866
X2.8937Y-1.4764
X2.8937Y-2.2047
X2.9567Y-2.8622
X2.9567Y-3.1622
X2.963Y-4.4213
X2.963Y-4.7213
X2.9728Y-5.9866
X2.9728Y-6.2866
X3.0039Y-2.4083
X3.0039Y-2.5559
X3.0102Y-3.9673
X3.0102Y-4.115
X3.0177Y-3.615
X3.0177Y-3.8118
X3.0201Y-5.5327
X3.0201Y-5.6803
X3.024Y-5.174
X3.024Y-5.3709
X3.0339Y-6.7394
X3.0339Y-6.9362
X3.0512Y-1.4764
X3.0512Y-1.5764
X3.0512Y-1.6764
X3.0567Y-2.8622
X3.0567Y-3.1622
X3.063Y-4.4213
X3.063Y-4.7213
X3.0728Y-5.9866
X3.0728Y-6.2866
X3.0732Y-3.3197
X3.0768Y-3.4673
X3.0795Y-4.8787
X3.0831Y-5.0264
X3.0894Y-6.4441
X3.0929Y-6.5917
X3.1102Y-1.9094
X3.1299Y-2.4083
X3.1315Y-2.5539
X3.1315Y-2.6996
X3.1362Y-3.9673
X3.1378Y-4.113
X3.1378Y-4.2587
X3.1461Y-5.5327
X3.1476Y-5.6783
X3.1476Y-5.824
X3.1693Y-0.9287
X3.1693Y-1.3287
X3.2146Y-2.8472
X3.2146Y-3.2472
X3.2146Y-3.4181
X3.2146Y-3.8181
X3.2209Y-4.4063
X3.2209Y-4.8063
X3.2209Y-4.9772
X3.2209Y-5.3772
X3.2307Y-5.9717
X3.2307Y-6.3717
X3.2307Y-6.5425
X3.2307Y-6.9425
X3.3071Y-1.9094
X3.3169Y-0.9843
X3.3169Y-1.2843
X3.3512Y-1.4764
X3.3512Y-1.5764
X3.3512Y-1.6764
X3.4055Y-3.4161
X3.4055Y-3.613
X3.4118Y-4.9752
X3.4118Y-5.172
X3.4217Y-6.5406
X3.4217Y-6.7374
X3.5236Y-1.4764
X3.5236Y-1.8764
X3.5299Y-2.4083
X3.5315Y-2.5539
X3.5315Y-2.6996
X3.5362Y-3.9673
X3.5378Y-4.113
X3.5378Y-4.2587
X3.5461Y-5.5327
X3.5476Y-5.6783
X3.5476Y-5.824
X4.1969Y-3.7992
X4.1969Y-4.1992
X4.3228Y-5.072
X4.3228Y-5.2177
X4.3228Y-6.6366
X4.3228Y-6.7823
X4.3244Y-5.3634
X4.3244Y-6.928
X4.3307Y-3.5079
X4.3307Y-3.6535
X4.3323Y-3.7992
X4.4488Y-5.7232
X4.4488Y-5.9201
X4.4567Y-2.5945
X4.4567Y-2.7913
X4.4803Y-4.3583
X4.4803Y-4.5551
X4.6398Y-3.9535
X4.6398Y-4.3535
X4.6398Y-4.5244
X4.6398Y-4.9244
X4.6398Y-5.5181
X4.6398Y-5.9181
X4.6398Y-6.089
X4.6398Y-6.489
X4.6476Y-2.3894
X4.6476Y-2.7894
X4.6476Y-2.9602
X4.6476Y-3.3602
X4.7228Y-5.072
X4.7228Y-5.2177
X4.7228Y-6.6366
X4.7228Y-6.7823
X4.7244Y-5.3634
X4.7244Y-6.928
X4.7307Y-3.5079
X4.7307Y-3.6535
X4.7323Y-3.7992
X4.7776Y-4.3043
X4.7776Y-5.8689
X4.7811Y-4.452
X4.7811Y-6.0165
X4.7854Y-2.7402
X4.789Y-2.8878
X4.7976Y-4.6094
X4.7976Y-4.9094
X4.7976Y-6.174
X4.7976Y-6.474
X4.8055Y-3.0453
X4.8055Y-3.3453
X4.8366Y-3.9598
X4.8366Y-4.1567
X4.8366Y-5.5244
X4.8366Y-5.7213
X4.8445Y-2.3957
X4.8445Y-2.5925
X4.8504Y-5.2157
X4.8504Y-5.3634
X4.8504Y-6.7803
X4.8504Y-6.928
X4.8583Y-3.6516
X4.8583Y-3.7992
X4.8976Y-4.6094
X4.8976Y-4.9094
X4.8976Y-6.174
X4.8976Y-6.474
X4.9055Y-3.0453
X4.9055Y-3.3453
X4.9976Y-4.6094
X4.9976Y-4.9094
X4.9976Y-6.174
X4.9976Y-6.474
X5.0055Y-3.0453
X5.0055Y-3.3453
X5.0551Y-4.1469
X5.0551Y-5.7114
X5.0567Y-3.9697
X5.0567Y-5.5343
X5.063Y-2.5827
X5.0646Y-2.4055
X5.0976Y-4.6094
X5.0976Y-4.9094
X5.0976Y-6.174
X5.0976Y-6.474
X5.1055Y-3.0453
X5.1055Y-3.3453
X5.1776Y-4.3043
X5.1776Y-5.8689
X5.1811Y-4.452
X5.1811Y-6.0165
X5.1854Y-2.7402
X5.189Y-2.8878
X5.1976Y-4.6094
X5.1976Y-4.9094
X5.1976Y-6.174
X5.1976Y-6.474
X5.2055Y-3.0453
X5.2055Y-3.3453
X5.2504Y-5.2157
X5.2504Y-5.3634
X5.2504Y-6.7803
X5.2504Y-6.928
X5.2583Y-3.6516
X5.2583Y-3.7992
X5.2976Y-4.6094
X5.2976Y-4.9094
X5.2976Y-6.174
X5.2976Y-6.474
X5.3055Y-3.0453
X5.3055Y-3.3453
X5.3189Y-4.3791
X5.3189Y-5.9437
X5.3268Y-2.815
X5.3976Y-4.6094
X5.3976Y-4.9094
X5.3976Y-6.174
X5.3976Y-6.474
X5.4055Y-3.0453
X5.4055Y-3.3453
X5.437Y-5.1902
X5.437Y-5.2689
X5.437Y-6.7547
X5.437Y-6.8335
X5.4449Y-3.626
X5.4449Y-3.7047
X5.4551Y-4.1469
X5.4551Y-5.7114
X5.4567Y-3.9697
X5.4567Y-5.5343
X5.463Y-2.5827
X5.4646Y-2.4055
X5.5157Y-4.3791
X5.5157Y-5.9437
X5.5236Y-2.815
X5.5846Y-4.0484
X5.5846Y-5.613
X5.5925Y-2.4843
X5.5945Y-4.6547
X5.5945Y-4.8516
X5.5945Y-6.2193
X5.5945Y-6.4161
X5.6024Y-3.0906
X5.6024Y-3.2874
X5.6339Y-4.9791
X5.6339Y-5.3791
X5.6339Y-6.5437
X5.6339Y-6.9437
X5.6417Y-3.415
X5.6417Y-3.815
X5.6846Y-3.9484
X5.6846Y-5.513
X5.6925Y-2.3843
X5.7835Y-4.2453
X5.7835Y-4.6453
X5.7835Y-4.9791
X5.7835Y-5.3791
X5.7835Y-5.8098
X5.7835Y-6.2098
X5.7835Y-6.5437
X5.7835Y-6.9437
X5.7846Y-4.0484
X5.7846Y-5.613
X5.7913Y-2.6811
X5.7913Y-3.0811
X5.7913Y-3.415
X5.7913Y-3.815
X5.7925Y-2.4843
T3
X2.415Y-1.0335
X2.415Y-1.1335
X2.515Y-1.0335
X2.515Y-1.1335
X2.615Y-1.0335
X2.615Y-1.1335
X2.715Y-1.0335
X2.715Y-1.1335
X2.815Y-1.0335
X2.815Y-1.1335
X3.8898Y-2.6732
X3.8898Y-2.7732
X3.8898Y-2.8732
X3.8898Y-2.9732
X3.8898Y-3.0732
X3.8898Y-3.1732
X3.8898Y-3.2732
X3.8898Y-3.3732
X3.8898Y-4.7677
X3.8898Y-4.8677
X3.8898Y-4.9677
X3.8898Y-5.0677
X3.8898Y-5.1677
X3.8898Y-5.2677
X3.8898Y-5.3677
X3.8898Y-5.4677
X3.8898Y-5.9724
X3.8898Y-6.0724
X3.8898Y-6.1724
X3.8898Y-6.2724
X3.8898Y-6.3724
X3.8898Y-6.4724
X3.8898Y-6.5724
X3.8898Y-6.6724
X3.9898Y-2.6732
X3.9898Y-2.7732
X3.9898Y-2.8732
X3.9898Y-2.9732
X3.9898Y-3.0732
X3.9898Y-3.1732
X3.9898Y-3.2732
X3.9898Y-3.3732
X3.9898Y-4.7677
X3.9898Y-4.8677
X3.9898Y-4.9677
X3.9898Y-5.0677
X3.9898Y-5.1677
X3.9898Y-5.2677
X3.9898Y-5.3677
X3.9898Y-5.4677
X3.9898Y-5.9724
X3.9898Y-6.0724
X3.9898Y-6.1724
X3.9898Y-6.2724
X3.9898Y-6.3724
X3.9898Y-6.4724
X3.9898Y-6.5724
X3.9898Y-6.6724
X4.3071Y-0.8937
X4.4071Y-0.8937
X4.5071Y-0.8937
X4.6071Y-0.8937
X4.7071Y-0.8937
X4.8071Y-0.8937
X4.9071Y-0.8937
X5.0071Y-0.8937
X5.1071Y-0.8937
X5.2071Y-0.8937
T4
X3.8039Y-1.2051
X3.8039Y-1.9051
X3.9039Y-1.2051
X3.9039Y-1.9051
X4.0039Y-1.2051
X4.0039Y-1.9051
X4.1039Y-1.2051
X4.1039Y-1.9051
X4.2039Y-1.2051
X4.2039Y-1.9051
X4.3039Y-1.2051
X4.3039Y-1.9051
X4.4039Y-1.2051
X4.4039Y-1.9051
X4.5039Y-1.2051
X4.5039Y-1.9051
X4.6039Y-1.2051
X4.6039Y-1.9051
X4.7039Y-1.2051
X4.7039Y-1.9051
X4.8039Y-1.2051
X4.8039Y-1.9051
X4.9039Y-1.2051
X4.9039Y-1.9051
X5.0039Y-1.2051
X5.0039Y-1.9051
X5.1039Y-1.2051
X5.1039Y-1.9051
X5.2039Y-1.2051
X5.2039Y-1.9051
X5.3039Y-1.2051
X5.3039Y-1.9051
X5.4039Y-1.2051
X5.4039Y-1.9051
X5.5039Y-1.2051
X5.5039Y-1.9051
X5.6039Y-1.2051
X5.6039Y-1.9051
X5.6949Y-1.4551
X5.6949Y-1.5551
X5.6949Y-1.6551
X5.7039Y-1.2051
X5.7039Y-1.9051
T5
X2.6969Y-1.9685
X2.7969Y-1.9685
X2.8969Y-1.9685
T6
X3.5122Y-1.0236
X3.6122Y-1.0236
X3.9409Y-3.815
X3.9409Y-3.915
X3.9409Y-4.0748
X3.9409Y-4.1748
X3.9409Y-4.2748
T7
X2.0669Y-0.8858
X2.0669Y-7.185
X5.8071Y-0.8858
X5.8071Y-7.185
T0
M30
